<mxfile host="Electron" modified="2024-01-08T11:28:33.954Z" agent="Mozilla/5.0 (Windows NT 10.0; Win64; x64) AppleWebKit/537.36 (KHTML, like Gecko) draw.io/22.0.2 Chrome/114.0.5735.289 Electron/25.8.4 Safari/537.36" etag="R-corrxLDjfNy2GvNPUe" version="22.0.2" type="device">
  <diagram id="R2lEEEUBdFMjLlhIrx00" name="Page-1">
    <mxGraphModel dx="1418" dy="828" grid="1" gridSize="10" guides="1" tooltips="1" connect="1" arrows="1" fold="1" page="1" pageScale="1" pageWidth="1100" pageHeight="850" math="0" shadow="0" extFonts="Permanent Marker^https://fonts.googleapis.com/css?family=Permanent+Marker">
      <root>
        <mxCell id="0" />
        <mxCell id="1" parent="0" />
        <mxCell id="ZlW_VbL8mxJAc58jKpAu-22" value="owned by" style="shape=rhombus;perimeter=rhombusPerimeter;whiteSpace=wrap;html=1;align=center;" parent="1" vertex="1">
          <mxGeometry x="594.5" y="427" width="120" height="60" as="geometry" />
        </mxCell>
        <mxCell id="PUHp0AnHMeHQiZFSW38K-1" value="region" style="whiteSpace=wrap;html=1;align=center;" parent="1" vertex="1">
          <mxGeometry x="638.5" y="238" width="100" height="40" as="geometry" />
        </mxCell>
        <mxCell id="PUHp0AnHMeHQiZFSW38K-2" value="region_id" style="ellipse;whiteSpace=wrap;html=1;align=center;fontStyle=4;" parent="1" vertex="1">
          <mxGeometry x="578.5" y="178" width="80" height="30" as="geometry" />
        </mxCell>
        <mxCell id="PUHp0AnHMeHQiZFSW38K-3" value="region_txt" style="ellipse;whiteSpace=wrap;html=1;align=center;" parent="1" vertex="1">
          <mxGeometry x="708.5" y="178" width="80" height="30" as="geometry" />
        </mxCell>
        <mxCell id="PUHp0AnHMeHQiZFSW38K-4" value="" style="endArrow=none;html=1;rounded=0;exitX=0.25;exitY=0;exitDx=0;exitDy=0;entryX=0.5;entryY=1;entryDx=0;entryDy=0;" parent="1" source="PUHp0AnHMeHQiZFSW38K-1" target="PUHp0AnHMeHQiZFSW38K-2" edge="1">
          <mxGeometry relative="1" as="geometry">
            <mxPoint x="390.5" y="238" as="sourcePoint" />
            <mxPoint x="550.5" y="238" as="targetPoint" />
          </mxGeometry>
        </mxCell>
        <mxCell id="PUHp0AnHMeHQiZFSW38K-5" value="" style="endArrow=none;html=1;rounded=0;exitX=0.5;exitY=1;exitDx=0;exitDy=0;entryX=0.75;entryY=0;entryDx=0;entryDy=0;" parent="1" source="PUHp0AnHMeHQiZFSW38K-3" target="PUHp0AnHMeHQiZFSW38K-1" edge="1">
          <mxGeometry relative="1" as="geometry">
            <mxPoint x="645.5" y="244" as="sourcePoint" />
            <mxPoint x="805.5" y="244" as="targetPoint" />
          </mxGeometry>
        </mxCell>
        <mxCell id="PUHp0AnHMeHQiZFSW38K-8" value="country" style="whiteSpace=wrap;html=1;align=center;" parent="1" vertex="1">
          <mxGeometry x="288" y="238" width="100" height="40" as="geometry" />
        </mxCell>
        <mxCell id="PUHp0AnHMeHQiZFSW38K-9" value="country_id" style="ellipse;whiteSpace=wrap;html=1;align=center;fontStyle=4;" parent="1" vertex="1">
          <mxGeometry x="228" y="178" width="80" height="30" as="geometry" />
        </mxCell>
        <mxCell id="PUHp0AnHMeHQiZFSW38K-10" value="country_txt" style="ellipse;whiteSpace=wrap;html=1;align=center;" parent="1" vertex="1">
          <mxGeometry x="359" y="178" width="80" height="30" as="geometry" />
        </mxCell>
        <mxCell id="PUHp0AnHMeHQiZFSW38K-11" value="" style="endArrow=none;html=1;rounded=0;exitX=0.25;exitY=0;exitDx=0;exitDy=0;entryX=0.5;entryY=1;entryDx=0;entryDy=0;" parent="1" source="PUHp0AnHMeHQiZFSW38K-8" target="PUHp0AnHMeHQiZFSW38K-9" edge="1">
          <mxGeometry relative="1" as="geometry">
            <mxPoint x="8" y="238" as="sourcePoint" />
            <mxPoint x="168" y="238" as="targetPoint" />
          </mxGeometry>
        </mxCell>
        <mxCell id="PUHp0AnHMeHQiZFSW38K-12" value="" style="endArrow=none;html=1;rounded=0;exitX=0.5;exitY=1;exitDx=0;exitDy=0;entryX=0.75;entryY=0;entryDx=0;entryDy=0;" parent="1" source="PUHp0AnHMeHQiZFSW38K-10" target="PUHp0AnHMeHQiZFSW38K-8" edge="1">
          <mxGeometry relative="1" as="geometry">
            <mxPoint x="408" y="213" as="sourcePoint" />
            <mxPoint x="168" y="238" as="targetPoint" />
          </mxGeometry>
        </mxCell>
        <mxCell id="PUHp0AnHMeHQiZFSW38K-13" value="part of" style="shape=rhombus;perimeter=rhombusPerimeter;whiteSpace=wrap;html=1;align=center;" parent="1" vertex="1">
          <mxGeometry x="451.75" y="228" width="120" height="60" as="geometry" />
        </mxCell>
        <mxCell id="PUHp0AnHMeHQiZFSW38K-18" value="" style="endArrow=none;html=1;rounded=0;entryX=0;entryY=0.5;entryDx=0;entryDy=0;exitX=1;exitY=0.5;exitDx=0;exitDy=0;" parent="1" source="PUHp0AnHMeHQiZFSW38K-13" target="PUHp0AnHMeHQiZFSW38K-1" edge="1">
          <mxGeometry relative="1" as="geometry">
            <mxPoint x="201" y="396" as="sourcePoint" />
            <mxPoint x="361" y="396" as="targetPoint" />
          </mxGeometry>
        </mxCell>
        <mxCell id="PUHp0AnHMeHQiZFSW38K-19" value="1" style="resizable=0;html=1;whiteSpace=wrap;align=right;verticalAlign=bottom;" parent="PUHp0AnHMeHQiZFSW38K-18" connectable="0" vertex="1">
          <mxGeometry x="1" relative="1" as="geometry">
            <mxPoint x="-7" as="offset" />
          </mxGeometry>
        </mxCell>
        <mxCell id="nkECsJHCFClMcqE2vH5_-14" value="terrorism_event" style="whiteSpace=wrap;html=1;align=center;" parent="1" vertex="1">
          <mxGeometry x="288" y="522" width="100" height="40" as="geometry" />
        </mxCell>
        <mxCell id="nkECsJHCFClMcqE2vH5_-15" value="event_id" style="ellipse;whiteSpace=wrap;html=1;align=center;fontStyle=4;" parent="1" vertex="1">
          <mxGeometry x="178" y="427.5" width="80" height="30" as="geometry" />
        </mxCell>
        <mxCell id="nkECsJHCFClMcqE2vH5_-16" value="year" style="ellipse;whiteSpace=wrap;html=1;align=center;fontStyle=4;" parent="1" vertex="1">
          <mxGeometry x="25" y="470" width="80" height="30" as="geometry" />
        </mxCell>
        <mxCell id="nkECsJHCFClMcqE2vH5_-19" value="month" style="ellipse;whiteSpace=wrap;html=1;align=center;fontStyle=4;" parent="1" vertex="1">
          <mxGeometry x="25" y="430" width="80" height="30" as="geometry" />
        </mxCell>
        <mxCell id="nkECsJHCFClMcqE2vH5_-20" value="day" style="ellipse;whiteSpace=wrap;html=1;align=center;fontStyle=4;" parent="1" vertex="1">
          <mxGeometry x="25" y="387" width="80" height="30" as="geometry" />
        </mxCell>
        <mxCell id="nkECsJHCFClMcqE2vH5_-21" value="case_number" style="ellipse;whiteSpace=wrap;html=1;align=center;fontStyle=4;" parent="1" vertex="1">
          <mxGeometry x="118" y="352.5" width="100" height="30" as="geometry" />
        </mxCell>
        <mxCell id="nkECsJHCFClMcqE2vH5_-22" value="" style="endArrow=none;html=1;rounded=0;entryX=1;entryY=0.5;entryDx=0;entryDy=0;exitX=0;exitY=1;exitDx=0;exitDy=0;" parent="1" source="nkECsJHCFClMcqE2vH5_-15" target="nkECsJHCFClMcqE2vH5_-16" edge="1">
          <mxGeometry width="50" height="50" relative="1" as="geometry">
            <mxPoint x="70" y="542.5" as="sourcePoint" />
            <mxPoint x="120" y="492.5" as="targetPoint" />
          </mxGeometry>
        </mxCell>
        <mxCell id="nkECsJHCFClMcqE2vH5_-24" value="" style="endArrow=none;html=1;rounded=0;entryX=1;entryY=0.5;entryDx=0;entryDy=0;exitX=0;exitY=0.5;exitDx=0;exitDy=0;" parent="1" source="nkECsJHCFClMcqE2vH5_-15" target="nkECsJHCFClMcqE2vH5_-19" edge="1">
          <mxGeometry width="50" height="50" relative="1" as="geometry">
            <mxPoint x="230" y="542.5" as="sourcePoint" />
            <mxPoint x="740" y="432.5" as="targetPoint" />
          </mxGeometry>
        </mxCell>
        <mxCell id="nkECsJHCFClMcqE2vH5_-25" value="" style="endArrow=none;html=1;rounded=0;entryX=0.93;entryY=0.75;entryDx=0;entryDy=0;exitX=0;exitY=0;exitDx=0;exitDy=0;entryPerimeter=0;" parent="1" source="nkECsJHCFClMcqE2vH5_-15" target="nkECsJHCFClMcqE2vH5_-20" edge="1">
          <mxGeometry width="50" height="50" relative="1" as="geometry">
            <mxPoint x="690" y="482.5" as="sourcePoint" />
            <mxPoint x="740" y="432.5" as="targetPoint" />
          </mxGeometry>
        </mxCell>
        <mxCell id="nkECsJHCFClMcqE2vH5_-26" value="" style="endArrow=none;html=1;rounded=0;entryX=0.5;entryY=1;entryDx=0;entryDy=0;exitX=0.5;exitY=0;exitDx=0;exitDy=0;" parent="1" source="nkECsJHCFClMcqE2vH5_-15" target="nkECsJHCFClMcqE2vH5_-21" edge="1">
          <mxGeometry width="50" height="50" relative="1" as="geometry">
            <mxPoint x="180" y="652.5" as="sourcePoint" />
            <mxPoint x="230" y="602.5" as="targetPoint" />
          </mxGeometry>
        </mxCell>
        <mxCell id="nkECsJHCFClMcqE2vH5_-27" value="crit1" style="ellipse;shape=ellipse;margin=3;whiteSpace=wrap;html=1;align=center;" parent="1" vertex="1">
          <mxGeometry x="398" y="425" width="80" height="30" as="geometry" />
        </mxCell>
        <mxCell id="nkECsJHCFClMcqE2vH5_-28" value="" style="endArrow=none;html=1;rounded=0;exitX=0;exitY=0;exitDx=0;exitDy=0;entryX=0.5;entryY=1;entryDx=0;entryDy=0;" parent="1" source="nkECsJHCFClMcqE2vH5_-14" target="nkECsJHCFClMcqE2vH5_-15" edge="1">
          <mxGeometry relative="1" as="geometry">
            <mxPoint x="640" y="452.5" as="sourcePoint" />
            <mxPoint x="800" y="452.5" as="targetPoint" />
          </mxGeometry>
        </mxCell>
        <mxCell id="nkECsJHCFClMcqE2vH5_-29" value="" style="endArrow=none;html=1;rounded=0;entryX=0;entryY=1;entryDx=0;entryDy=0;exitX=0.85;exitY=0.025;exitDx=0;exitDy=0;exitPerimeter=0;" parent="1" source="nkECsJHCFClMcqE2vH5_-14" target="nkECsJHCFClMcqE2vH5_-27" edge="1">
          <mxGeometry relative="1" as="geometry">
            <mxPoint x="640" y="452.5" as="sourcePoint" />
            <mxPoint x="800" y="452.5" as="targetPoint" />
          </mxGeometry>
        </mxCell>
        <mxCell id="nkECsJHCFClMcqE2vH5_-30" value="doubt_terr" style="ellipse;whiteSpace=wrap;html=1;align=center;" parent="1" vertex="1">
          <mxGeometry x="168" y="490" width="80" height="30" as="geometry" />
        </mxCell>
        <mxCell id="nkECsJHCFClMcqE2vH5_-43" value="" style="endArrow=none;html=1;rounded=0;entryX=0.5;entryY=1;entryDx=0;entryDy=0;exitX=0.5;exitY=0;exitDx=0;exitDy=0;" parent="1" source="xxvrsZBVpvBbBPzatT5H-5" target="PUHp0AnHMeHQiZFSW38K-8" edge="1">
          <mxGeometry relative="1" as="geometry">
            <mxPoint x="371" y="254" as="sourcePoint" />
            <mxPoint x="466" y="323" as="targetPoint" />
          </mxGeometry>
        </mxCell>
        <mxCell id="nkECsJHCFClMcqE2vH5_-44" value="1" style="resizable=0;html=1;whiteSpace=wrap;align=right;verticalAlign=bottom;" parent="nkECsJHCFClMcqE2vH5_-43" connectable="0" vertex="1">
          <mxGeometry x="1" relative="1" as="geometry">
            <mxPoint x="-4" y="20" as="offset" />
          </mxGeometry>
        </mxCell>
        <mxCell id="nkECsJHCFClMcqE2vH5_-60" value="multiple" style="ellipse;whiteSpace=wrap;html=1;align=center;" parent="1" vertex="1">
          <mxGeometry x="168" y="560" width="80" height="30" as="geometry" />
        </mxCell>
        <mxCell id="nkECsJHCFClMcqE2vH5_-61" value="" style="endArrow=none;html=1;rounded=0;exitX=0;exitY=0.25;exitDx=0;exitDy=0;entryX=1;entryY=0.5;entryDx=0;entryDy=0;" parent="1" source="nkECsJHCFClMcqE2vH5_-14" target="nkECsJHCFClMcqE2vH5_-30" edge="1">
          <mxGeometry relative="1" as="geometry">
            <mxPoint x="640" y="452.5" as="sourcePoint" />
            <mxPoint x="800" y="452.5" as="targetPoint" />
          </mxGeometry>
        </mxCell>
        <mxCell id="nkECsJHCFClMcqE2vH5_-62" value="success" style="ellipse;whiteSpace=wrap;html=1;align=center;" parent="1" vertex="1">
          <mxGeometry x="168" y="610" width="80" height="30" as="geometry" />
        </mxCell>
        <mxCell id="nkECsJHCFClMcqE2vH5_-63" value="suicide" style="ellipse;whiteSpace=wrap;html=1;align=center;" parent="1" vertex="1">
          <mxGeometry x="268.75" y="622" width="80" height="30" as="geometry" />
        </mxCell>
        <mxCell id="FFzC2VgaHiQ2Ie_KqDFo-7" value="alternative_dsn" style="shape=ext;margin=3;double=1;whiteSpace=wrap;html=1;align=center;" parent="1" vertex="1">
          <mxGeometry x="61" y="629" width="100" height="40" as="geometry" />
        </mxCell>
        <mxCell id="FFzC2VgaHiQ2Ie_KqDFo-8" value="alternative_id" style="ellipse;whiteSpace=wrap;html=1;align=center;fontStyle=4;" parent="1" vertex="1">
          <mxGeometry x="6" y="699" width="100" height="30" as="geometry" />
        </mxCell>
        <mxCell id="FFzC2VgaHiQ2Ie_KqDFo-9" value="alternative_txt" style="ellipse;whiteSpace=wrap;html=1;align=center;" parent="1" vertex="1">
          <mxGeometry x="121" y="699" width="100" height="30" as="geometry" />
        </mxCell>
        <mxCell id="FFzC2VgaHiQ2Ie_KqDFo-10" value="" style="endArrow=none;html=1;rounded=0;exitX=0.5;exitY=0;exitDx=0;exitDy=0;entryX=0.25;entryY=1;entryDx=0;entryDy=0;" parent="1" source="FFzC2VgaHiQ2Ie_KqDFo-8" target="FFzC2VgaHiQ2Ie_KqDFo-7" edge="1">
          <mxGeometry relative="1" as="geometry">
            <mxPoint x="-202.5" y="359" as="sourcePoint" />
            <mxPoint x="-42.5" y="359" as="targetPoint" />
          </mxGeometry>
        </mxCell>
        <mxCell id="FFzC2VgaHiQ2Ie_KqDFo-11" value="" style="endArrow=none;html=1;rounded=0;entryX=0.5;entryY=0;entryDx=0;entryDy=0;exitX=0.75;exitY=1;exitDx=0;exitDy=0;" parent="1" source="FFzC2VgaHiQ2Ie_KqDFo-7" target="FFzC2VgaHiQ2Ie_KqDFo-9" edge="1">
          <mxGeometry relative="1" as="geometry">
            <mxPoint x="167.5" y="669" as="sourcePoint" />
            <mxPoint x="-42.5" y="359" as="targetPoint" />
          </mxGeometry>
        </mxCell>
        <mxCell id="xxvrsZBVpvBbBPzatT5H-1" value="city" style="ellipse;whiteSpace=wrap;html=1;align=center;" parent="1" vertex="1">
          <mxGeometry x="348.75" y="387" width="80" height="30" as="geometry" />
        </mxCell>
        <mxCell id="xxvrsZBVpvBbBPzatT5H-2" value="provstate" style="ellipse;whiteSpace=wrap;html=1;align=center;" parent="1" vertex="1">
          <mxGeometry x="248" y="400" width="80" height="30" as="geometry" />
        </mxCell>
        <mxCell id="xxvrsZBVpvBbBPzatT5H-3" value="" style="endArrow=none;html=1;rounded=0;exitX=0.5;exitY=1;exitDx=0;exitDy=0;entryX=0.25;entryY=0;entryDx=0;entryDy=0;" parent="1" source="xxvrsZBVpvBbBPzatT5H-2" target="nkECsJHCFClMcqE2vH5_-14" edge="1">
          <mxGeometry relative="1" as="geometry">
            <mxPoint x="610" y="430" as="sourcePoint" />
            <mxPoint x="770" y="430" as="targetPoint" />
          </mxGeometry>
        </mxCell>
        <mxCell id="xxvrsZBVpvBbBPzatT5H-4" value="" style="endArrow=none;html=1;rounded=0;exitX=0.5;exitY=1;exitDx=0;exitDy=0;entryX=0.75;entryY=0;entryDx=0;entryDy=0;" parent="1" source="xxvrsZBVpvBbBPzatT5H-1" target="nkECsJHCFClMcqE2vH5_-14" edge="1">
          <mxGeometry relative="1" as="geometry">
            <mxPoint x="610" y="430" as="sourcePoint" />
            <mxPoint x="360" y="520" as="targetPoint" />
          </mxGeometry>
        </mxCell>
        <mxCell id="xxvrsZBVpvBbBPzatT5H-5" value="occurs in" style="shape=rhombus;perimeter=rhombusPerimeter;whiteSpace=wrap;html=1;align=center;" parent="1" vertex="1">
          <mxGeometry x="278" y="325.5" width="120" height="60" as="geometry" />
        </mxCell>
        <mxCell id="xxvrsZBVpvBbBPzatT5H-7" value="" style="endArrow=none;html=1;rounded=0;exitX=0.5;exitY=1;exitDx=0;exitDy=0;" parent="1" source="xxvrsZBVpvBbBPzatT5H-5" target="nkECsJHCFClMcqE2vH5_-14" edge="1">
          <mxGeometry relative="1" as="geometry">
            <mxPoint x="610" y="430" as="sourcePoint" />
            <mxPoint x="770" y="430" as="targetPoint" />
          </mxGeometry>
        </mxCell>
        <mxCell id="xxvrsZBVpvBbBPzatT5H-8" value="N" style="resizable=0;html=1;whiteSpace=wrap;align=right;verticalAlign=bottom;" parent="xxvrsZBVpvBbBPzatT5H-7" connectable="0" vertex="1">
          <mxGeometry x="1" relative="1" as="geometry">
            <mxPoint x="14" y="-4" as="offset" />
          </mxGeometry>
        </mxCell>
        <mxCell id="xxvrsZBVpvBbBPzatT5H-9" value="can have" style="shape=rhombus;double=1;perimeter=rhombusPerimeter;whiteSpace=wrap;html=1;align=center;" parent="1" vertex="1">
          <mxGeometry x="51.5" y="513" width="120" height="60" as="geometry" />
        </mxCell>
        <mxCell id="xxvrsZBVpvBbBPzatT5H-10" value="" style="endArrow=none;html=1;rounded=0;exitX=1;exitY=0.5;exitDx=0;exitDy=0;entryX=0;entryY=0.5;entryDx=0;entryDy=0;" parent="1" source="xxvrsZBVpvBbBPzatT5H-9" target="nkECsJHCFClMcqE2vH5_-14" edge="1">
          <mxGeometry relative="1" as="geometry">
            <mxPoint x="390" y="530" as="sourcePoint" />
            <mxPoint x="550" y="530" as="targetPoint" />
          </mxGeometry>
        </mxCell>
        <mxCell id="xxvrsZBVpvBbBPzatT5H-11" value="1" style="resizable=0;html=1;whiteSpace=wrap;align=right;verticalAlign=bottom;" parent="xxvrsZBVpvBbBPzatT5H-10" connectable="0" vertex="1">
          <mxGeometry x="1" relative="1" as="geometry">
            <mxPoint x="-7" y="1" as="offset" />
          </mxGeometry>
        </mxCell>
        <mxCell id="xxvrsZBVpvBbBPzatT5H-12" value="" style="endArrow=none;html=1;rounded=0;dashed=1;dashPattern=1 2;exitX=0.5;exitY=1;exitDx=0;exitDy=0;entryX=0.5;entryY=0;entryDx=0;entryDy=0;" parent="1" source="xxvrsZBVpvBbBPzatT5H-9" target="FFzC2VgaHiQ2Ie_KqDFo-7" edge="1">
          <mxGeometry relative="1" as="geometry">
            <mxPoint x="390" y="530" as="sourcePoint" />
            <mxPoint x="550" y="530" as="targetPoint" />
          </mxGeometry>
        </mxCell>
        <mxCell id="xxvrsZBVpvBbBPzatT5H-13" value="(0:1)" style="resizable=0;html=1;whiteSpace=wrap;align=right;verticalAlign=bottom;" parent="xxvrsZBVpvBbBPzatT5H-12" connectable="0" vertex="1">
          <mxGeometry x="1" relative="1" as="geometry">
            <mxPoint x="-6" y="-4" as="offset" />
          </mxGeometry>
        </mxCell>
        <mxCell id="xxvrsZBVpvBbBPzatT5H-14" value="attack" style="shape=rhombus;perimeter=rhombusPerimeter;whiteSpace=wrap;html=1;align=center;" parent="1" vertex="1">
          <mxGeometry x="189" y="646" width="120" height="60" as="geometry" />
        </mxCell>
        <mxCell id="xxvrsZBVpvBbBPzatT5H-45" value="" style="endArrow=none;html=1;rounded=0;exitX=1;exitY=0.5;exitDx=0;exitDy=0;entryX=0;entryY=0.75;entryDx=0;entryDy=0;" parent="1" source="nkECsJHCFClMcqE2vH5_-60" target="nkECsJHCFClMcqE2vH5_-14" edge="1">
          <mxGeometry relative="1" as="geometry">
            <mxPoint x="280" y="630" as="sourcePoint" />
            <mxPoint x="440" y="630" as="targetPoint" />
          </mxGeometry>
        </mxCell>
        <mxCell id="xxvrsZBVpvBbBPzatT5H-46" value="" style="endArrow=none;html=1;rounded=0;exitX=1;exitY=0.5;exitDx=0;exitDy=0;entryX=0;entryY=1;entryDx=0;entryDy=0;" parent="1" source="nkECsJHCFClMcqE2vH5_-62" target="nkECsJHCFClMcqE2vH5_-14" edge="1">
          <mxGeometry relative="1" as="geometry">
            <mxPoint x="449" y="589" as="sourcePoint" />
            <mxPoint x="320" y="560" as="targetPoint" />
          </mxGeometry>
        </mxCell>
        <mxCell id="xxvrsZBVpvBbBPzatT5H-57" value="targeted" style="shape=rhombus;perimeter=rhombusPerimeter;whiteSpace=wrap;html=1;align=center;" parent="1" vertex="1">
          <mxGeometry x="439" y="512" width="120" height="60" as="geometry" />
        </mxCell>
        <mxCell id="xxvrsZBVpvBbBPzatT5H-65" value="" style="endArrow=none;html=1;rounded=0;exitX=0;exitY=0.5;exitDx=0;exitDy=0;entryX=1;entryY=0.5;entryDx=0;entryDy=0;" parent="1" source="PUHp0AnHMeHQiZFSW38K-13" target="PUHp0AnHMeHQiZFSW38K-8" edge="1">
          <mxGeometry relative="1" as="geometry">
            <mxPoint x="530" y="590" as="sourcePoint" />
            <mxPoint x="690" y="590" as="targetPoint" />
          </mxGeometry>
        </mxCell>
        <mxCell id="xxvrsZBVpvBbBPzatT5H-66" value="N" style="resizable=0;html=1;whiteSpace=wrap;align=right;verticalAlign=bottom;" parent="xxvrsZBVpvBbBPzatT5H-65" connectable="0" vertex="1">
          <mxGeometry x="1" relative="1" as="geometry">
            <mxPoint x="17" as="offset" />
          </mxGeometry>
        </mxCell>
        <mxCell id="ZlW_VbL8mxJAc58jKpAu-1" value="event_target" style="whiteSpace=wrap;html=1;align=center;" parent="1" vertex="1">
          <mxGeometry x="604.25" y="522" width="100" height="40" as="geometry" />
        </mxCell>
        <mxCell id="ZlW_VbL8mxJAc58jKpAu-2" value="nationality" style="whiteSpace=wrap;html=1;align=center;" parent="1" vertex="1">
          <mxGeometry x="605" y="347" width="100" height="40" as="geometry" />
        </mxCell>
        <mxCell id="ZlW_VbL8mxJAc58jKpAu-3" value="nationality_id" style="ellipse;whiteSpace=wrap;html=1;align=center;fontStyle=4;" parent="1" vertex="1">
          <mxGeometry x="542" y="288" width="100" height="30" as="geometry" />
        </mxCell>
        <mxCell id="ZlW_VbL8mxJAc58jKpAu-4" value="nationality_txt" style="ellipse;whiteSpace=wrap;html=1;align=center;" parent="1" vertex="1">
          <mxGeometry x="661" y="288" width="100" height="30" as="geometry" />
        </mxCell>
        <mxCell id="ZlW_VbL8mxJAc58jKpAu-5" value="" style="endArrow=none;html=1;rounded=0;entryX=0.25;entryY=0;entryDx=0;entryDy=0;exitX=0.5;exitY=1;exitDx=0;exitDy=0;" parent="1" source="ZlW_VbL8mxJAc58jKpAu-3" target="ZlW_VbL8mxJAc58jKpAu-2" edge="1">
          <mxGeometry relative="1" as="geometry">
            <mxPoint x="615" y="302" as="sourcePoint" />
            <mxPoint x="1337.5" y="171.99" as="targetPoint" />
          </mxGeometry>
        </mxCell>
        <mxCell id="ZlW_VbL8mxJAc58jKpAu-6" value="" style="endArrow=none;html=1;rounded=0;exitX=0.5;exitY=1;exitDx=0;exitDy=0;entryX=0.75;entryY=0;entryDx=0;entryDy=0;" parent="1" source="ZlW_VbL8mxJAc58jKpAu-4" target="ZlW_VbL8mxJAc58jKpAu-2" edge="1">
          <mxGeometry relative="1" as="geometry">
            <mxPoint x="1011.5" y="161.99" as="sourcePoint" />
            <mxPoint x="1171.5" y="161.99" as="targetPoint" />
          </mxGeometry>
        </mxCell>
        <mxCell id="ZlW_VbL8mxJAc58jKpAu-7" value="target_subtype" style="shape=ext;margin=3;double=0;whiteSpace=wrap;html=1;align=center;" parent="1" vertex="1">
          <mxGeometry x="604.5" y="692" width="100" height="40" as="geometry" />
        </mxCell>
        <mxCell id="ZlW_VbL8mxJAc58jKpAu-8" value="target_subtype_id" style="ellipse;whiteSpace=wrap;html=1;align=center;fontStyle=4;" parent="1" vertex="1">
          <mxGeometry x="534.5" y="762" width="110" height="30" as="geometry" />
        </mxCell>
        <mxCell id="ZlW_VbL8mxJAc58jKpAu-9" value="target_subtype_txt" style="ellipse;whiteSpace=wrap;html=1;align=center;" parent="1" vertex="1">
          <mxGeometry x="664" y="762" width="110" height="30" as="geometry" />
        </mxCell>
        <mxCell id="ZlW_VbL8mxJAc58jKpAu-10" value="" style="endArrow=none;html=1;rounded=0;exitX=0.5;exitY=0;exitDx=0;exitDy=0;entryX=0.25;entryY=1;entryDx=0;entryDy=0;" parent="1" source="ZlW_VbL8mxJAc58jKpAu-8" target="ZlW_VbL8mxJAc58jKpAu-7" edge="1">
          <mxGeometry relative="1" as="geometry">
            <mxPoint x="964" y="422" as="sourcePoint" />
            <mxPoint x="633" y="732" as="targetPoint" />
          </mxGeometry>
        </mxCell>
        <mxCell id="ZlW_VbL8mxJAc58jKpAu-11" value="" style="endArrow=none;html=1;rounded=0;exitX=0.5;exitY=0;exitDx=0;exitDy=0;entryX=0.75;entryY=1;entryDx=0;entryDy=0;" parent="1" source="ZlW_VbL8mxJAc58jKpAu-9" target="ZlW_VbL8mxJAc58jKpAu-7" edge="1">
          <mxGeometry relative="1" as="geometry">
            <mxPoint x="964" y="422" as="sourcePoint" />
            <mxPoint x="683" y="732" as="targetPoint" />
          </mxGeometry>
        </mxCell>
        <mxCell id="ZlW_VbL8mxJAc58jKpAu-12" value="target_type" style="shape=ext;margin=3;double=0;whiteSpace=wrap;html=1;align=center;" parent="1" vertex="1">
          <mxGeometry x="894.25" y="522" width="100" height="40" as="geometry" />
        </mxCell>
        <mxCell id="ZlW_VbL8mxJAc58jKpAu-13" value="target_type_id" style="ellipse;whiteSpace=wrap;html=1;align=center;fontStyle=4;" parent="1" vertex="1">
          <mxGeometry x="824.25" y="592" width="100" height="30" as="geometry" />
        </mxCell>
        <mxCell id="ZlW_VbL8mxJAc58jKpAu-14" value="target_type_txt" style="ellipse;whiteSpace=wrap;html=1;align=center;" parent="1" vertex="1">
          <mxGeometry x="953.75" y="592" width="100" height="30" as="geometry" />
        </mxCell>
        <mxCell id="ZlW_VbL8mxJAc58jKpAu-15" value="" style="endArrow=none;html=1;rounded=0;exitX=0.5;exitY=0;exitDx=0;exitDy=0;entryX=0.25;entryY=1;entryDx=0;entryDy=0;" parent="1" source="ZlW_VbL8mxJAc58jKpAu-13" target="ZlW_VbL8mxJAc58jKpAu-12" edge="1">
          <mxGeometry relative="1" as="geometry">
            <mxPoint x="1253.75" y="252" as="sourcePoint" />
            <mxPoint x="922.75" y="562" as="targetPoint" />
          </mxGeometry>
        </mxCell>
        <mxCell id="ZlW_VbL8mxJAc58jKpAu-16" value="" style="endArrow=none;html=1;rounded=0;exitX=0.5;exitY=0;exitDx=0;exitDy=0;entryX=0.75;entryY=1;entryDx=0;entryDy=0;" parent="1" source="ZlW_VbL8mxJAc58jKpAu-14" target="ZlW_VbL8mxJAc58jKpAu-12" edge="1">
          <mxGeometry relative="1" as="geometry">
            <mxPoint x="1253.75" y="252" as="sourcePoint" />
            <mxPoint x="972.75" y="562" as="targetPoint" />
          </mxGeometry>
        </mxCell>
        <mxCell id="ZlW_VbL8mxJAc58jKpAu-17" value="of type" style="shape=rhombus;perimeter=rhombusPerimeter;whiteSpace=wrap;html=1;align=center;" parent="1" vertex="1">
          <mxGeometry x="744.25" y="512" width="120" height="60" as="geometry" />
        </mxCell>
        <mxCell id="ZlW_VbL8mxJAc58jKpAu-18" value="" style="endArrow=none;html=1;rounded=0;entryX=0;entryY=0.5;entryDx=0;entryDy=0;exitX=1;exitY=0.5;exitDx=0;exitDy=0;" parent="1" source="ZlW_VbL8mxJAc58jKpAu-17" target="ZlW_VbL8mxJAc58jKpAu-12" edge="1">
          <mxGeometry relative="1" as="geometry">
            <mxPoint x="304.25" y="302" as="sourcePoint" />
            <mxPoint x="464.25" y="302" as="targetPoint" />
          </mxGeometry>
        </mxCell>
        <mxCell id="ZlW_VbL8mxJAc58jKpAu-19" value="1" style="resizable=0;html=1;whiteSpace=wrap;align=right;verticalAlign=bottom;" parent="ZlW_VbL8mxJAc58jKpAu-18" connectable="0" vertex="1">
          <mxGeometry x="1" relative="1" as="geometry">
            <mxPoint x="-3" as="offset" />
          </mxGeometry>
        </mxCell>
        <mxCell id="ZlW_VbL8mxJAc58jKpAu-20" value="" style="endArrow=none;html=1;rounded=0;entryX=1;entryY=0.5;entryDx=0;entryDy=0;exitX=0;exitY=0.5;exitDx=0;exitDy=0;" parent="1" source="ZlW_VbL8mxJAc58jKpAu-17" target="ZlW_VbL8mxJAc58jKpAu-1" edge="1">
          <mxGeometry relative="1" as="geometry">
            <mxPoint x="304.25" y="302" as="sourcePoint" />
            <mxPoint x="464.25" y="302" as="targetPoint" />
          </mxGeometry>
        </mxCell>
        <mxCell id="ZlW_VbL8mxJAc58jKpAu-21" value="N" style="resizable=0;html=1;whiteSpace=wrap;align=right;verticalAlign=bottom;" parent="ZlW_VbL8mxJAc58jKpAu-20" connectable="0" vertex="1">
          <mxGeometry x="1" relative="1" as="geometry">
            <mxPoint x="14" as="offset" />
          </mxGeometry>
        </mxCell>
        <mxCell id="ZlW_VbL8mxJAc58jKpAu-27" value="event_id" style="ellipse;whiteSpace=wrap;html=1;align=center;fontStyle=4;" parent="1" vertex="1">
          <mxGeometry x="514.25" y="472" width="80" height="30" as="geometry" />
        </mxCell>
        <mxCell id="ZlW_VbL8mxJAc58jKpAu-28" value="" style="endArrow=none;html=1;rounded=0;entryX=0;entryY=0;entryDx=0;entryDy=0;exitX=1;exitY=1;exitDx=0;exitDy=0;" parent="1" source="ZlW_VbL8mxJAc58jKpAu-27" target="ZlW_VbL8mxJAc58jKpAu-1" edge="1">
          <mxGeometry relative="1" as="geometry">
            <mxPoint x="304.25" y="502" as="sourcePoint" />
            <mxPoint x="464.25" y="502" as="targetPoint" />
          </mxGeometry>
        </mxCell>
        <mxCell id="ZlW_VbL8mxJAc58jKpAu-29" value="target_type_id" style="ellipse;whiteSpace=wrap;html=1;align=center;fontStyle=4;" parent="1" vertex="1">
          <mxGeometry x="492.75" y="581.99" width="100" height="30" as="geometry" />
        </mxCell>
        <mxCell id="ZlW_VbL8mxJAc58jKpAu-30" value="" style="endArrow=none;html=1;rounded=0;entryX=0;entryY=1;entryDx=0;entryDy=0;exitX=1;exitY=0;exitDx=0;exitDy=0;" parent="1" source="ZlW_VbL8mxJAc58jKpAu-29" target="ZlW_VbL8mxJAc58jKpAu-1" edge="1">
          <mxGeometry relative="1" as="geometry">
            <mxPoint x="304.25" y="502" as="sourcePoint" />
            <mxPoint x="464.25" y="502" as="targetPoint" />
          </mxGeometry>
        </mxCell>
        <mxCell id="ZlW_VbL8mxJAc58jKpAu-31" value="nationality_id" style="ellipse;whiteSpace=wrap;html=1;align=center;fontStyle=4;" parent="1" vertex="1">
          <mxGeometry x="714.25" y="472" width="100" height="30" as="geometry" />
        </mxCell>
        <mxCell id="ZlW_VbL8mxJAc58jKpAu-32" value="" style="endArrow=none;html=1;rounded=0;entryX=0;entryY=1;entryDx=0;entryDy=0;exitX=1;exitY=0;exitDx=0;exitDy=0;" parent="1" source="ZlW_VbL8mxJAc58jKpAu-1" target="ZlW_VbL8mxJAc58jKpAu-31" edge="1">
          <mxGeometry relative="1" as="geometry">
            <mxPoint x="304.25" y="502" as="sourcePoint" />
            <mxPoint x="464.25" y="502" as="targetPoint" />
          </mxGeometry>
        </mxCell>
        <mxCell id="ZlW_VbL8mxJAc58jKpAu-33" value="target detail" style="shape=rhombus;perimeter=rhombusPerimeter;whiteSpace=wrap;html=1;align=center;" parent="1" vertex="1">
          <mxGeometry x="594.5" y="602" width="120" height="60" as="geometry" />
        </mxCell>
        <mxCell id="ZlW_VbL8mxJAc58jKpAu-34" value="target_subtype_id" style="ellipse;whiteSpace=wrap;html=1;align=center;fontStyle=4;" parent="1" vertex="1">
          <mxGeometry x="688.75" y="581.99" width="110" height="30" as="geometry" />
        </mxCell>
        <mxCell id="ZlW_VbL8mxJAc58jKpAu-35" value="" style="endArrow=none;html=1;rounded=0;entryX=1;entryY=1;entryDx=0;entryDy=0;exitX=0.5;exitY=0;exitDx=0;exitDy=0;" parent="1" source="ZlW_VbL8mxJAc58jKpAu-34" target="ZlW_VbL8mxJAc58jKpAu-1" edge="1">
          <mxGeometry relative="1" as="geometry">
            <mxPoint x="304.25" y="592" as="sourcePoint" />
            <mxPoint x="464.25" y="592" as="targetPoint" />
          </mxGeometry>
        </mxCell>
        <mxCell id="ZlW_VbL8mxJAc58jKpAu-36" value="" style="endArrow=none;html=1;rounded=0;entryX=0.5;entryY=1;entryDx=0;entryDy=0;exitX=0.5;exitY=0;exitDx=0;exitDy=0;" parent="1" source="ZlW_VbL8mxJAc58jKpAu-33" target="ZlW_VbL8mxJAc58jKpAu-1" edge="1">
          <mxGeometry relative="1" as="geometry">
            <mxPoint x="304.25" y="592" as="sourcePoint" />
            <mxPoint x="464.25" y="592" as="targetPoint" />
          </mxGeometry>
        </mxCell>
        <mxCell id="ZlW_VbL8mxJAc58jKpAu-37" value="N" style="resizable=0;html=1;whiteSpace=wrap;align=right;verticalAlign=bottom;" parent="ZlW_VbL8mxJAc58jKpAu-36" connectable="0" vertex="1">
          <mxGeometry x="1" relative="1" as="geometry">
            <mxPoint x="15" y="20" as="offset" />
          </mxGeometry>
        </mxCell>
        <mxCell id="ZlW_VbL8mxJAc58jKpAu-38" value="" style="endArrow=none;html=1;rounded=0;entryX=0.5;entryY=0;entryDx=0;entryDy=0;exitX=0.5;exitY=1;exitDx=0;exitDy=0;" parent="1" source="ZlW_VbL8mxJAc58jKpAu-33" target="ZlW_VbL8mxJAc58jKpAu-7" edge="1">
          <mxGeometry relative="1" as="geometry">
            <mxPoint x="304.25" y="592" as="sourcePoint" />
            <mxPoint x="464.25" y="592" as="targetPoint" />
          </mxGeometry>
        </mxCell>
        <mxCell id="ZlW_VbL8mxJAc58jKpAu-39" value="1" style="resizable=0;html=1;whiteSpace=wrap;align=right;verticalAlign=bottom;" parent="ZlW_VbL8mxJAc58jKpAu-38" connectable="0" vertex="1">
          <mxGeometry x="1" relative="1" as="geometry">
            <mxPoint x="11" as="offset" />
          </mxGeometry>
        </mxCell>
        <mxCell id="ZlW_VbL8mxJAc58jKpAu-42" value="" style="endArrow=none;html=1;rounded=0;entryX=0.5;entryY=0;entryDx=0;entryDy=0;exitX=0.5;exitY=1;exitDx=0;exitDy=0;" parent="1" source="ZlW_VbL8mxJAc58jKpAu-22" target="ZlW_VbL8mxJAc58jKpAu-1" edge="1">
          <mxGeometry relative="1" as="geometry">
            <mxPoint x="544.25" y="582" as="sourcePoint" />
            <mxPoint x="704.25" y="582" as="targetPoint" />
          </mxGeometry>
        </mxCell>
        <mxCell id="ZlW_VbL8mxJAc58jKpAu-43" value="N" style="resizable=0;html=1;whiteSpace=wrap;align=right;verticalAlign=bottom;" parent="ZlW_VbL8mxJAc58jKpAu-42" connectable="0" vertex="1">
          <mxGeometry x="1" relative="1" as="geometry">
            <mxPoint x="15" y="-2" as="offset" />
          </mxGeometry>
        </mxCell>
        <mxCell id="ZlW_VbL8mxJAc58jKpAu-46" value="" style="endArrow=none;html=1;rounded=0;entryX=0.5;entryY=1;entryDx=0;entryDy=0;exitX=0.5;exitY=0;exitDx=0;exitDy=0;" parent="1" source="ZlW_VbL8mxJAc58jKpAu-22" target="ZlW_VbL8mxJAc58jKpAu-2" edge="1">
          <mxGeometry relative="1" as="geometry">
            <mxPoint x="584.25" y="432" as="sourcePoint" />
            <mxPoint x="704.25" y="412" as="targetPoint" />
          </mxGeometry>
        </mxCell>
        <mxCell id="ZlW_VbL8mxJAc58jKpAu-47" value="1" style="resizable=0;html=1;whiteSpace=wrap;align=right;verticalAlign=bottom;" parent="ZlW_VbL8mxJAc58jKpAu-46" connectable="0" vertex="1">
          <mxGeometry x="1" relative="1" as="geometry">
            <mxPoint x="12" y="18" as="offset" />
          </mxGeometry>
        </mxCell>
        <mxCell id="ZlW_VbL8mxJAc58jKpAu-54" value="" style="endArrow=none;html=1;rounded=0;entryX=0;entryY=0.5;entryDx=0;entryDy=0;" parent="1" target="ZlW_VbL8mxJAc58jKpAu-1" edge="1">
          <mxGeometry relative="1" as="geometry">
            <mxPoint x="560" y="542" as="sourcePoint" />
            <mxPoint x="600" y="530" as="targetPoint" />
          </mxGeometry>
        </mxCell>
        <mxCell id="ZlW_VbL8mxJAc58jKpAu-55" value="N" style="resizable=0;html=1;whiteSpace=wrap;align=right;verticalAlign=bottom;" parent="ZlW_VbL8mxJAc58jKpAu-54" connectable="0" vertex="1">
          <mxGeometry x="1" relative="1" as="geometry">
            <mxPoint x="-4" as="offset" />
          </mxGeometry>
        </mxCell>
        <mxCell id="ZlW_VbL8mxJAc58jKpAu-56" value="" style="endArrow=none;html=1;rounded=0;entryX=1;entryY=0.5;entryDx=0;entryDy=0;exitX=0;exitY=0.5;exitDx=0;exitDy=0;" parent="1" source="xxvrsZBVpvBbBPzatT5H-57" target="nkECsJHCFClMcqE2vH5_-14" edge="1">
          <mxGeometry relative="1" as="geometry">
            <mxPoint x="440" y="530" as="sourcePoint" />
            <mxPoint x="600" y="530" as="targetPoint" />
          </mxGeometry>
        </mxCell>
        <mxCell id="ZlW_VbL8mxJAc58jKpAu-57" value="1" style="resizable=0;html=1;whiteSpace=wrap;align=right;verticalAlign=bottom;" parent="ZlW_VbL8mxJAc58jKpAu-56" connectable="0" vertex="1">
          <mxGeometry x="1" relative="1" as="geometry">
            <mxPoint x="12" as="offset" />
          </mxGeometry>
        </mxCell>
        <mxCell id="ZlW_VbL8mxJAc58jKpAu-69" value="event_weapon" style="whiteSpace=wrap;html=1;align=center;" parent="1" vertex="1">
          <mxGeometry x="401" y="859" width="100" height="40" as="geometry" />
        </mxCell>
        <mxCell id="ZlW_VbL8mxJAc58jKpAu-70" value="weapon_subtype" style="shape=ext;margin=3;double=0;whiteSpace=wrap;html=1;align=center;" parent="1" vertex="1">
          <mxGeometry x="401.25" y="1029" width="100" height="40" as="geometry" />
        </mxCell>
        <mxCell id="ZlW_VbL8mxJAc58jKpAu-71" value="weapon_subtype_id" style="ellipse;whiteSpace=wrap;html=1;align=center;fontStyle=4;" parent="1" vertex="1">
          <mxGeometry x="331.25" y="1099" width="120" height="30" as="geometry" />
        </mxCell>
        <mxCell id="ZlW_VbL8mxJAc58jKpAu-72" value="weapon_subtype_txt" style="ellipse;whiteSpace=wrap;html=1;align=center;" parent="1" vertex="1">
          <mxGeometry x="460.75" y="1099" width="120" height="30" as="geometry" />
        </mxCell>
        <mxCell id="ZlW_VbL8mxJAc58jKpAu-73" value="" style="endArrow=none;html=1;rounded=0;exitX=0.5;exitY=0;exitDx=0;exitDy=0;entryX=0.25;entryY=1;entryDx=0;entryDy=0;" parent="1" source="ZlW_VbL8mxJAc58jKpAu-71" target="ZlW_VbL8mxJAc58jKpAu-70" edge="1">
          <mxGeometry relative="1" as="geometry">
            <mxPoint x="760.75" y="759" as="sourcePoint" />
            <mxPoint x="429.75" y="1069" as="targetPoint" />
          </mxGeometry>
        </mxCell>
        <mxCell id="ZlW_VbL8mxJAc58jKpAu-74" value="" style="endArrow=none;html=1;rounded=0;exitX=0.5;exitY=0;exitDx=0;exitDy=0;entryX=0.75;entryY=1;entryDx=0;entryDy=0;" parent="1" source="ZlW_VbL8mxJAc58jKpAu-72" target="ZlW_VbL8mxJAc58jKpAu-70" edge="1">
          <mxGeometry relative="1" as="geometry">
            <mxPoint x="760.75" y="759" as="sourcePoint" />
            <mxPoint x="479.75" y="1069" as="targetPoint" />
          </mxGeometry>
        </mxCell>
        <mxCell id="ZlW_VbL8mxJAc58jKpAu-75" value="weapon_type" style="shape=ext;margin=3;double=0;whiteSpace=wrap;html=1;align=center;" parent="1" vertex="1">
          <mxGeometry x="691" y="859" width="100" height="40" as="geometry" />
        </mxCell>
        <mxCell id="ZlW_VbL8mxJAc58jKpAu-76" value="weapon_type_id" style="ellipse;whiteSpace=wrap;html=1;align=center;fontStyle=4;" parent="1" vertex="1">
          <mxGeometry x="621" y="929" width="110" height="30" as="geometry" />
        </mxCell>
        <mxCell id="ZlW_VbL8mxJAc58jKpAu-77" value="weapon_type_txt" style="ellipse;whiteSpace=wrap;html=1;align=center;" parent="1" vertex="1">
          <mxGeometry x="750.5" y="929" width="110" height="30" as="geometry" />
        </mxCell>
        <mxCell id="ZlW_VbL8mxJAc58jKpAu-78" value="" style="endArrow=none;html=1;rounded=0;exitX=0.5;exitY=0;exitDx=0;exitDy=0;entryX=0.25;entryY=1;entryDx=0;entryDy=0;" parent="1" source="ZlW_VbL8mxJAc58jKpAu-76" target="ZlW_VbL8mxJAc58jKpAu-75" edge="1">
          <mxGeometry relative="1" as="geometry">
            <mxPoint x="1050.5" y="589" as="sourcePoint" />
            <mxPoint x="719.5" y="899" as="targetPoint" />
          </mxGeometry>
        </mxCell>
        <mxCell id="ZlW_VbL8mxJAc58jKpAu-79" value="" style="endArrow=none;html=1;rounded=0;exitX=0.5;exitY=0;exitDx=0;exitDy=0;entryX=0.75;entryY=1;entryDx=0;entryDy=0;" parent="1" source="ZlW_VbL8mxJAc58jKpAu-77" target="ZlW_VbL8mxJAc58jKpAu-75" edge="1">
          <mxGeometry relative="1" as="geometry">
            <mxPoint x="1050.5" y="589" as="sourcePoint" />
            <mxPoint x="769.5" y="899" as="targetPoint" />
          </mxGeometry>
        </mxCell>
        <mxCell id="ZlW_VbL8mxJAc58jKpAu-80" value="of type" style="shape=rhombus;perimeter=rhombusPerimeter;whiteSpace=wrap;html=1;align=center;" parent="1" vertex="1">
          <mxGeometry x="541" y="849" width="120" height="60" as="geometry" />
        </mxCell>
        <mxCell id="ZlW_VbL8mxJAc58jKpAu-81" value="" style="endArrow=none;html=1;rounded=0;entryX=0;entryY=0.5;entryDx=0;entryDy=0;exitX=1;exitY=0.5;exitDx=0;exitDy=0;" parent="1" source="ZlW_VbL8mxJAc58jKpAu-80" target="ZlW_VbL8mxJAc58jKpAu-75" edge="1">
          <mxGeometry relative="1" as="geometry">
            <mxPoint x="101" y="639" as="sourcePoint" />
            <mxPoint x="261" y="639" as="targetPoint" />
          </mxGeometry>
        </mxCell>
        <mxCell id="ZlW_VbL8mxJAc58jKpAu-82" value="1" style="resizable=0;html=1;whiteSpace=wrap;align=right;verticalAlign=bottom;" parent="ZlW_VbL8mxJAc58jKpAu-81" connectable="0" vertex="1">
          <mxGeometry x="1" relative="1" as="geometry">
            <mxPoint x="-3" as="offset" />
          </mxGeometry>
        </mxCell>
        <mxCell id="ZlW_VbL8mxJAc58jKpAu-83" value="" style="endArrow=none;html=1;rounded=0;entryX=1;entryY=0.5;entryDx=0;entryDy=0;exitX=0;exitY=0.5;exitDx=0;exitDy=0;" parent="1" source="ZlW_VbL8mxJAc58jKpAu-80" target="ZlW_VbL8mxJAc58jKpAu-69" edge="1">
          <mxGeometry relative="1" as="geometry">
            <mxPoint x="101" y="639" as="sourcePoint" />
            <mxPoint x="261" y="639" as="targetPoint" />
          </mxGeometry>
        </mxCell>
        <mxCell id="ZlW_VbL8mxJAc58jKpAu-84" value="N" style="resizable=0;html=1;whiteSpace=wrap;align=right;verticalAlign=bottom;" parent="ZlW_VbL8mxJAc58jKpAu-83" connectable="0" vertex="1">
          <mxGeometry x="1" relative="1" as="geometry">
            <mxPoint x="14" as="offset" />
          </mxGeometry>
        </mxCell>
        <mxCell id="ZlW_VbL8mxJAc58jKpAu-85" value="event_id" style="ellipse;whiteSpace=wrap;html=1;align=center;fontStyle=4;" parent="1" vertex="1">
          <mxGeometry x="311" y="909" width="80" height="30" as="geometry" />
        </mxCell>
        <mxCell id="ZlW_VbL8mxJAc58jKpAu-86" value="" style="endArrow=none;html=1;rounded=0;entryX=0;entryY=1;entryDx=0;entryDy=0;exitX=1;exitY=0;exitDx=0;exitDy=0;" parent="1" source="ZlW_VbL8mxJAc58jKpAu-85" target="ZlW_VbL8mxJAc58jKpAu-69" edge="1">
          <mxGeometry relative="1" as="geometry">
            <mxPoint x="101" y="839" as="sourcePoint" />
            <mxPoint x="261" y="839" as="targetPoint" />
          </mxGeometry>
        </mxCell>
        <mxCell id="ZlW_VbL8mxJAc58jKpAu-89" value="weapon_id" style="ellipse;whiteSpace=wrap;html=1;align=center;fontStyle=4;" parent="1" vertex="1">
          <mxGeometry x="511" y="809" width="100" height="30" as="geometry" />
        </mxCell>
        <mxCell id="ZlW_VbL8mxJAc58jKpAu-90" value="" style="endArrow=none;html=1;rounded=0;entryX=0;entryY=1;entryDx=0;entryDy=0;exitX=1;exitY=0;exitDx=0;exitDy=0;" parent="1" source="ZlW_VbL8mxJAc58jKpAu-69" target="ZlW_VbL8mxJAc58jKpAu-89" edge="1">
          <mxGeometry relative="1" as="geometry">
            <mxPoint x="101" y="839" as="sourcePoint" />
            <mxPoint x="261" y="839" as="targetPoint" />
          </mxGeometry>
        </mxCell>
        <mxCell id="ZlW_VbL8mxJAc58jKpAu-91" value="weapon detail" style="shape=rhombus;perimeter=rhombusPerimeter;whiteSpace=wrap;html=1;align=center;" parent="1" vertex="1">
          <mxGeometry x="391.25" y="939" width="120" height="60" as="geometry" />
        </mxCell>
        <mxCell id="ZlW_VbL8mxJAc58jKpAu-92" value="weapon_subtype_id" style="ellipse;whiteSpace=wrap;html=1;align=center;fontStyle=4;" parent="1" vertex="1">
          <mxGeometry x="485.5" y="918.99" width="120" height="30" as="geometry" />
        </mxCell>
        <mxCell id="ZlW_VbL8mxJAc58jKpAu-93" value="" style="endArrow=none;html=1;rounded=0;entryX=1;entryY=1;entryDx=0;entryDy=0;exitX=0.5;exitY=0;exitDx=0;exitDy=0;" parent="1" source="ZlW_VbL8mxJAc58jKpAu-92" target="ZlW_VbL8mxJAc58jKpAu-69" edge="1">
          <mxGeometry relative="1" as="geometry">
            <mxPoint x="101" y="929" as="sourcePoint" />
            <mxPoint x="261" y="929" as="targetPoint" />
          </mxGeometry>
        </mxCell>
        <mxCell id="ZlW_VbL8mxJAc58jKpAu-94" value="" style="endArrow=none;html=1;rounded=0;entryX=0.5;entryY=1;entryDx=0;entryDy=0;exitX=0.5;exitY=0;exitDx=0;exitDy=0;" parent="1" source="ZlW_VbL8mxJAc58jKpAu-91" target="ZlW_VbL8mxJAc58jKpAu-69" edge="1">
          <mxGeometry relative="1" as="geometry">
            <mxPoint x="101" y="929" as="sourcePoint" />
            <mxPoint x="261" y="929" as="targetPoint" />
          </mxGeometry>
        </mxCell>
        <mxCell id="ZlW_VbL8mxJAc58jKpAu-95" value="N" style="resizable=0;html=1;whiteSpace=wrap;align=right;verticalAlign=bottom;" parent="ZlW_VbL8mxJAc58jKpAu-94" connectable="0" vertex="1">
          <mxGeometry x="1" relative="1" as="geometry">
            <mxPoint x="15" y="20" as="offset" />
          </mxGeometry>
        </mxCell>
        <mxCell id="ZlW_VbL8mxJAc58jKpAu-96" value="" style="endArrow=none;html=1;rounded=0;entryX=0.5;entryY=0;entryDx=0;entryDy=0;exitX=0.5;exitY=1;exitDx=0;exitDy=0;" parent="1" source="ZlW_VbL8mxJAc58jKpAu-91" target="ZlW_VbL8mxJAc58jKpAu-70" edge="1">
          <mxGeometry relative="1" as="geometry">
            <mxPoint x="101" y="929" as="sourcePoint" />
            <mxPoint x="261" y="929" as="targetPoint" />
          </mxGeometry>
        </mxCell>
        <mxCell id="ZlW_VbL8mxJAc58jKpAu-97" value="1" style="resizable=0;html=1;whiteSpace=wrap;align=right;verticalAlign=bottom;" parent="ZlW_VbL8mxJAc58jKpAu-96" connectable="0" vertex="1">
          <mxGeometry x="1" relative="1" as="geometry">
            <mxPoint x="11" as="offset" />
          </mxGeometry>
        </mxCell>
        <mxCell id="ZlW_VbL8mxJAc58jKpAu-98" value="" style="endArrow=none;html=1;rounded=0;entryX=0.5;entryY=0;entryDx=0;entryDy=0;exitX=0.5;exitY=1;exitDx=0;exitDy=0;" parent="1" source="ZlW_VbL8mxJAc58jKpAu-128" target="ZlW_VbL8mxJAc58jKpAu-69" edge="1">
          <mxGeometry relative="1" as="geometry">
            <mxPoint x="451.75" y="824" as="sourcePoint" />
            <mxPoint x="501" y="919" as="targetPoint" />
          </mxGeometry>
        </mxCell>
        <mxCell id="ZlW_VbL8mxJAc58jKpAu-99" value="N" style="resizable=0;html=1;whiteSpace=wrap;align=right;verticalAlign=bottom;" parent="ZlW_VbL8mxJAc58jKpAu-98" connectable="0" vertex="1">
          <mxGeometry x="1" relative="1" as="geometry">
            <mxPoint x="15" y="-2" as="offset" />
          </mxGeometry>
        </mxCell>
        <mxCell id="ZlW_VbL8mxJAc58jKpAu-102" value="event_attack_type" style="whiteSpace=wrap;html=1;align=center;" parent="1" vertex="1">
          <mxGeometry x="194" y="796" width="110" height="40" as="geometry" />
        </mxCell>
        <mxCell id="ZlW_VbL8mxJAc58jKpAu-103" value="attack_type" style="shape=ext;margin=3;double=0;whiteSpace=wrap;html=1;align=center;" parent="1" vertex="1">
          <mxGeometry x="199.25" y="966" width="100" height="40" as="geometry" />
        </mxCell>
        <mxCell id="ZlW_VbL8mxJAc58jKpAu-104" value="attack_type_id" style="ellipse;whiteSpace=wrap;html=1;align=center;fontStyle=4;" parent="1" vertex="1">
          <mxGeometry x="129.25" y="1036" width="100" height="30" as="geometry" />
        </mxCell>
        <mxCell id="ZlW_VbL8mxJAc58jKpAu-105" value="attack_type_txt" style="ellipse;whiteSpace=wrap;html=1;align=center;" parent="1" vertex="1">
          <mxGeometry x="258.75" y="1036" width="100" height="30" as="geometry" />
        </mxCell>
        <mxCell id="ZlW_VbL8mxJAc58jKpAu-106" value="" style="endArrow=none;html=1;rounded=0;exitX=0.5;exitY=0;exitDx=0;exitDy=0;entryX=0.25;entryY=1;entryDx=0;entryDy=0;" parent="1" source="ZlW_VbL8mxJAc58jKpAu-104" target="ZlW_VbL8mxJAc58jKpAu-103" edge="1">
          <mxGeometry relative="1" as="geometry">
            <mxPoint x="558.75" y="696" as="sourcePoint" />
            <mxPoint x="227.75" y="1006" as="targetPoint" />
          </mxGeometry>
        </mxCell>
        <mxCell id="ZlW_VbL8mxJAc58jKpAu-107" value="" style="endArrow=none;html=1;rounded=0;exitX=0.5;exitY=0;exitDx=0;exitDy=0;entryX=0.75;entryY=1;entryDx=0;entryDy=0;" parent="1" source="ZlW_VbL8mxJAc58jKpAu-105" target="ZlW_VbL8mxJAc58jKpAu-103" edge="1">
          <mxGeometry relative="1" as="geometry">
            <mxPoint x="563.75" y="696" as="sourcePoint" />
            <mxPoint x="282.75" y="1006" as="targetPoint" />
          </mxGeometry>
        </mxCell>
        <mxCell id="ZlW_VbL8mxJAc58jKpAu-110" value="event_id" style="ellipse;whiteSpace=wrap;html=1;align=center;fontStyle=4;" parent="1" vertex="1">
          <mxGeometry x="109" y="856" width="80" height="30" as="geometry" />
        </mxCell>
        <mxCell id="ZlW_VbL8mxJAc58jKpAu-111" value="" style="endArrow=none;html=1;rounded=0;entryX=0;entryY=1;entryDx=0;entryDy=0;exitX=1;exitY=0;exitDx=0;exitDy=0;" parent="1" source="ZlW_VbL8mxJAc58jKpAu-110" target="ZlW_VbL8mxJAc58jKpAu-102" edge="1">
          <mxGeometry relative="1" as="geometry">
            <mxPoint x="197" y="866" as="sourcePoint" />
            <mxPoint x="75" y="776" as="targetPoint" />
          </mxGeometry>
        </mxCell>
        <mxCell id="ZlW_VbL8mxJAc58jKpAu-112" value="attack_type_id" style="ellipse;whiteSpace=wrap;html=1;align=center;fontStyle=4;" parent="1" vertex="1">
          <mxGeometry x="99" y="746" width="100" height="30" as="geometry" />
        </mxCell>
        <mxCell id="ZlW_VbL8mxJAc58jKpAu-113" value="" style="endArrow=none;html=1;rounded=0;entryX=0.5;entryY=1;entryDx=0;entryDy=0;exitX=0;exitY=0;exitDx=0;exitDy=0;" parent="1" source="ZlW_VbL8mxJAc58jKpAu-102" target="ZlW_VbL8mxJAc58jKpAu-112" edge="1">
          <mxGeometry relative="1" as="geometry">
            <mxPoint x="-101" y="776" as="sourcePoint" />
            <mxPoint x="59" y="776" as="targetPoint" />
          </mxGeometry>
        </mxCell>
        <mxCell id="ZlW_VbL8mxJAc58jKpAu-114" value="used" style="shape=rhombus;perimeter=rhombusPerimeter;whiteSpace=wrap;html=1;align=center;" parent="1" vertex="1">
          <mxGeometry x="189.25" y="876" width="120" height="60" as="geometry" />
        </mxCell>
        <mxCell id="ZlW_VbL8mxJAc58jKpAu-117" value="" style="endArrow=none;html=1;rounded=0;entryX=0.5;entryY=1;entryDx=0;entryDy=0;exitX=0.5;exitY=0;exitDx=0;exitDy=0;" parent="1" source="ZlW_VbL8mxJAc58jKpAu-114" target="ZlW_VbL8mxJAc58jKpAu-102" edge="1">
          <mxGeometry relative="1" as="geometry">
            <mxPoint x="249.25" y="876" as="sourcePoint" />
            <mxPoint x="59" y="866" as="targetPoint" />
          </mxGeometry>
        </mxCell>
        <mxCell id="ZlW_VbL8mxJAc58jKpAu-118" value="N" style="resizable=0;html=1;whiteSpace=wrap;align=right;verticalAlign=bottom;" parent="ZlW_VbL8mxJAc58jKpAu-117" connectable="0" vertex="1">
          <mxGeometry x="1" relative="1" as="geometry">
            <mxPoint x="15" y="20" as="offset" />
          </mxGeometry>
        </mxCell>
        <mxCell id="ZlW_VbL8mxJAc58jKpAu-119" value="" style="endArrow=none;html=1;rounded=0;entryX=0.5;entryY=0;entryDx=0;entryDy=0;exitX=0.5;exitY=1;exitDx=0;exitDy=0;" parent="1" source="ZlW_VbL8mxJAc58jKpAu-114" target="ZlW_VbL8mxJAc58jKpAu-103" edge="1">
          <mxGeometry relative="1" as="geometry">
            <mxPoint x="249.25" y="936" as="sourcePoint" />
            <mxPoint x="59" y="866" as="targetPoint" />
          </mxGeometry>
        </mxCell>
        <mxCell id="ZlW_VbL8mxJAc58jKpAu-120" value="1" style="resizable=0;html=1;whiteSpace=wrap;align=right;verticalAlign=bottom;" parent="ZlW_VbL8mxJAc58jKpAu-119" connectable="0" vertex="1">
          <mxGeometry x="1" relative="1" as="geometry">
            <mxPoint x="11" as="offset" />
          </mxGeometry>
        </mxCell>
        <mxCell id="ZlW_VbL8mxJAc58jKpAu-121" value="" style="endArrow=none;html=1;rounded=0;entryX=0.5;entryY=0;entryDx=0;entryDy=0;exitX=0.5;exitY=1;exitDx=0;exitDy=0;" parent="1" source="xxvrsZBVpvBbBPzatT5H-14" target="ZlW_VbL8mxJAc58jKpAu-102" edge="1">
          <mxGeometry relative="1" as="geometry">
            <mxPoint x="268.75" y="795" as="sourcePoint" />
            <mxPoint x="318" y="890" as="targetPoint" />
          </mxGeometry>
        </mxCell>
        <mxCell id="ZlW_VbL8mxJAc58jKpAu-122" value="N" style="resizable=0;html=1;whiteSpace=wrap;align=right;verticalAlign=bottom;" parent="ZlW_VbL8mxJAc58jKpAu-121" connectable="0" vertex="1">
          <mxGeometry x="1" relative="1" as="geometry">
            <mxPoint x="15" y="-2" as="offset" />
          </mxGeometry>
        </mxCell>
        <mxCell id="ZlW_VbL8mxJAc58jKpAu-126" value="" style="endArrow=none;html=1;rounded=0;entryX=0.25;entryY=1;entryDx=0;entryDy=0;exitX=0.5;exitY=0;exitDx=0;exitDy=0;" parent="1" source="xxvrsZBVpvBbBPzatT5H-14" target="nkECsJHCFClMcqE2vH5_-14" edge="1">
          <mxGeometry relative="1" as="geometry">
            <mxPoint x="590" y="920" as="sourcePoint" />
            <mxPoint x="750" y="920" as="targetPoint" />
          </mxGeometry>
        </mxCell>
        <mxCell id="ZlW_VbL8mxJAc58jKpAu-127" value="1" style="resizable=0;html=1;whiteSpace=wrap;align=right;verticalAlign=bottom;" parent="ZlW_VbL8mxJAc58jKpAu-126" connectable="0" vertex="1">
          <mxGeometry x="1" relative="1" as="geometry">
            <mxPoint x="5" y="19" as="offset" />
          </mxGeometry>
        </mxCell>
        <mxCell id="ZlW_VbL8mxJAc58jKpAu-128" value="weapon used" style="shape=rhombus;perimeter=rhombusPerimeter;whiteSpace=wrap;html=1;align=center;" parent="1" vertex="1">
          <mxGeometry x="391" y="692" width="120" height="60" as="geometry" />
        </mxCell>
        <mxCell id="ZlW_VbL8mxJAc58jKpAu-129" value="" style="endArrow=none;html=1;rounded=0;entryX=0.75;entryY=1;entryDx=0;entryDy=0;exitX=0.5;exitY=0;exitDx=0;exitDy=0;" parent="1" source="ZlW_VbL8mxJAc58jKpAu-128" target="nkECsJHCFClMcqE2vH5_-14" edge="1">
          <mxGeometry relative="1" as="geometry">
            <mxPoint x="590" y="920" as="sourcePoint" />
            <mxPoint x="750" y="920" as="targetPoint" />
          </mxGeometry>
        </mxCell>
        <mxCell id="ZlW_VbL8mxJAc58jKpAu-130" value="1" style="resizable=0;html=1;whiteSpace=wrap;align=right;verticalAlign=bottom;" parent="ZlW_VbL8mxJAc58jKpAu-129" connectable="0" vertex="1">
          <mxGeometry x="1" relative="1" as="geometry">
            <mxPoint x="23" y="20" as="offset" />
          </mxGeometry>
        </mxCell>
        <mxCell id="ahwuG_6ItEAnRInKI0Z5-1" value="" style="endArrow=none;html=1;rounded=0;exitX=0.36;exitY=1;exitDx=0;exitDy=0;exitPerimeter=0;entryX=1;entryY=0;entryDx=0;entryDy=0;" parent="1" source="nkECsJHCFClMcqE2vH5_-14" target="nkECsJHCFClMcqE2vH5_-63" edge="1">
          <mxGeometry relative="1" as="geometry">
            <mxPoint x="810" y="360" as="sourcePoint" />
            <mxPoint x="970" y="360" as="targetPoint" />
          </mxGeometry>
        </mxCell>
        <mxCell id="ahwuG_6ItEAnRInKI0Z5-2" value="nkill" style="ellipse;whiteSpace=wrap;html=1;align=center;" parent="1" vertex="1">
          <mxGeometry x="318" y="661" width="80" height="30" as="geometry" />
        </mxCell>
        <mxCell id="ahwuG_6ItEAnRInKI0Z5-3" value="nkill_ter" style="ellipse;whiteSpace=wrap;html=1;align=center;" parent="1" vertex="1">
          <mxGeometry x="462" y="617" width="80" height="30" as="geometry" />
        </mxCell>
        <mxCell id="ahwuG_6ItEAnRInKI0Z5-4" value="nkill_us" style="ellipse;whiteSpace=wrap;html=1;align=center;" parent="1" vertex="1">
          <mxGeometry x="454.5" y="661" width="80" height="30" as="geometry" />
        </mxCell>
        <mxCell id="ahwuG_6ItEAnRInKI0Z5-5" value="" style="endArrow=none;html=1;rounded=0;exitX=1;exitY=0.75;exitDx=0;exitDy=0;entryX=0;entryY=0;entryDx=0;entryDy=0;" parent="1" source="nkECsJHCFClMcqE2vH5_-14" target="ahwuG_6ItEAnRInKI0Z5-3" edge="1">
          <mxGeometry relative="1" as="geometry">
            <mxPoint x="470" y="430" as="sourcePoint" />
            <mxPoint x="630" y="430" as="targetPoint" />
          </mxGeometry>
        </mxCell>
        <mxCell id="ahwuG_6ItEAnRInKI0Z5-6" value="" style="endArrow=none;html=1;rounded=0;exitX=1;exitY=1;exitDx=0;exitDy=0;entryX=0;entryY=0;entryDx=0;entryDy=0;" parent="1" source="nkECsJHCFClMcqE2vH5_-14" target="ahwuG_6ItEAnRInKI0Z5-4" edge="1">
          <mxGeometry relative="1" as="geometry">
            <mxPoint x="470" y="430" as="sourcePoint" />
            <mxPoint x="630" y="430" as="targetPoint" />
          </mxGeometry>
        </mxCell>
        <mxCell id="ahwuG_6ItEAnRInKI0Z5-7" value="" style="endArrow=none;html=1;rounded=0;exitX=0.5;exitY=1;exitDx=0;exitDy=0;entryX=1;entryY=0;entryDx=0;entryDy=0;" parent="1" source="nkECsJHCFClMcqE2vH5_-14" target="ahwuG_6ItEAnRInKI0Z5-2" edge="1">
          <mxGeometry relative="1" as="geometry">
            <mxPoint x="470" y="430" as="sourcePoint" />
            <mxPoint x="630" y="430" as="targetPoint" />
          </mxGeometry>
        </mxCell>
        <mxCell id="vfRcm-zVK-CSYUwSiDKp-1" value="crit2" style="ellipse;shape=ellipse;margin=3;whiteSpace=wrap;html=1;align=center;" parent="1" vertex="1">
          <mxGeometry x="468" y="390" width="80" height="30" as="geometry" />
        </mxCell>
        <mxCell id="vfRcm-zVK-CSYUwSiDKp-2" value="" style="endArrow=none;html=1;rounded=0;entryX=1;entryY=1;entryDx=0;entryDy=0;exitX=0.94;exitY=0.025;exitDx=0;exitDy=0;exitPerimeter=0;" parent="1" source="nkECsJHCFClMcqE2vH5_-14" target="vfRcm-zVK-CSYUwSiDKp-1" edge="1">
          <mxGeometry relative="1" as="geometry">
            <mxPoint x="475" y="448" as="sourcePoint" />
            <mxPoint x="902" y="377.5" as="targetPoint" />
          </mxGeometry>
        </mxCell>
        <mxCell id="vfRcm-zVK-CSYUwSiDKp-3" value="crit3" style="ellipse;shape=ellipse;margin=3;whiteSpace=wrap;html=1;align=center;" parent="1" vertex="1">
          <mxGeometry x="530" y="420" width="80" height="30" as="geometry" />
        </mxCell>
        <mxCell id="vfRcm-zVK-CSYUwSiDKp-4" value="" style="endArrow=none;html=1;rounded=0;entryX=0;entryY=1;entryDx=0;entryDy=0;exitX=1;exitY=0;exitDx=0;exitDy=0;" parent="1" source="nkECsJHCFClMcqE2vH5_-14" target="vfRcm-zVK-CSYUwSiDKp-3" edge="1">
          <mxGeometry relative="1" as="geometry">
            <mxPoint x="515" y="518" as="sourcePoint" />
            <mxPoint x="942" y="447.5" as="targetPoint" />
          </mxGeometry>
        </mxCell>
      </root>
    </mxGraphModel>
  </diagram>
</mxfile>
